HIERARCHY
ROOT Hips
{
  OFFSET -17.8222 7.7 127.125
  CHANNELS 6 Xposition Yposition Zposition Zrotation Xrotation Yrotation
  JOINT Spine
  {
    OFFSET 0 0 0
    CHANNELS 3 Zrotation Xrotation Yrotation
    JOINT Spine1
    {
      OFFSET 19 0 0
      CHANNELS 3 Zrotation Xrotation Yrotation
      JOINT Neck
      {
        OFFSET 22.5 0.6 0
        CHANNELS 3 Zrotation Xrotation Yrotation
        JOINT Head
        {
          OFFSET 14 0.0308777 0
          CHANNELS 3 Zrotation Xrotation Yrotation
          End Site
          {
            OFFSET 17 0 0
          }
        }
      }
      JOINT LeftShoulder
      {
        OFFSET 19.8 3.7 4.3
        CHANNELS 3 Zrotation Xrotation Yrotation
        JOINT LeftArm
        {
          OFFSET 8 0 0
          CHANNELS 3 Zrotation Xrotation Yrotation
          JOINT LeftForeArm
          {
            OFFSET 15.2 0 0
            CHANNELS 3 Zrotation Xrotation Yrotation
            JOINT LeftHand
            {
              OFFSET 17.8 0 0
              CHANNELS 3 Zrotation Xrotation Yrotation
              End Site
              {
                OFFSET 7.2 0 0
              }
            }
          }
        }
      }
      JOINT RightShoulder
      {
        OFFSET 19.8 3.7 -4.3
        CHANNELS 3 Zrotation Xrotation Yrotation
        JOINT RightArm
        {
          OFFSET 8 0 0.151654
          CHANNELS 3 Zrotation Xrotation Yrotation
          JOINT RightForeArm
          {
            OFFSET 15.2 0 0
            CHANNELS 3 Zrotation Xrotation Yrotation
            JOINT RightHand
            {
              OFFSET 17.8 0 0
              CHANNELS 3 Zrotation Xrotation Yrotation
              End Site
              {
                OFFSET 7.2 0 0
              }
            }
          }
        }
      }
    }
  }
  JOINT LeftUpLeg
  {
    OFFSET 5.98425 -7.666 4.78879
    CHANNELS 3 Zrotation Xrotation Yrotation
    JOINT LeftLeg
    {
      OFFSET 16 0 0
      CHANNELS 3 Zrotation Xrotation Yrotation
      JOINT LeftFoot
      {
        OFFSET 18 0 0
        CHANNELS 3 Zrotation Xrotation Yrotation
        End Site
        {
          OFFSET 0 -10.8 0
        }
      }
    }
  }
  JOINT RightUpLeg
  {
    OFFSET 5.98425 -7.66598 -4.78879
    CHANNELS 3 Zrotation Xrotation Yrotation
    JOINT RightLeg
    {
      OFFSET 16 0 0
      CHANNELS 3 Zrotation Xrotation Yrotation
      JOINT RightFoot
      {
        OFFSET 18 0 0
        CHANNELS 3 Zrotation Xrotation Yrotation
        End Site
        {
          OFFSET 0 -10.8 0
        }
      }
    }
  }
  JOINT Tail
  {
    OFFSET 6.83696 -0.722574 0
    CHANNELS 3 Zrotation Xrotation Yrotation
    JOINT Tail1
    {
      OFFSET 12 0 0
      CHANNELS 3 Zrotation Xrotation Yrotation
      End Site
      {
        OFFSET 12 0 0
      }
    }
  }
}
MOTION
Frames:	19
Frame Time:	0.0166667
8.7212 44.8099 127.964 -4.85359 -3.10442 58.2999 -161.576 3.07605 0.322553 -24.3483 3.80642 -1.62937 -24.4739 -15.4478 1.36979 -110.095 79.6073 94.5972 -108.577 -32.725 -141.087 118.369 -51.4002 -135.729 -61.9267 -27.4005 3.9067 31.6367 2.72282 -4.53892 75.5297 -29.387 43.9558 38.2289 -47.0171 -53.9378 -57.1054 -23.2872 5.9309 -12.9949 -0.743413 7.92337 -102.475 -3.44869 -23.5264 81.1969 9.02886 4.41082 53.763 -2.28697 -5.23277 -130.295 3.07029 2.0228 82.8055 -6.73414 -6.16316 35.1871 -0.0353979 -1.21655 -68.7663 6.46876 46.4619 34.6514 -72.6679 42.6796 
8.56853 44.9505 128.682 -5.58138 -1.84457 57.3064 -162.099 3.22539 -0.61833 -24.387 3.95349 -0.990014 -24.7776 -15.1528 0.849553 -112.368 79.5371 95.9751 -109.012 -33.6327 -140.356 117.518 -50.1384 -136.776 -65.5806 -37.2087 5.35162 37.4747 1.78674 -12.4223 75.7535 -28.6468 42.9197 38.4845 -46.935 -53.8124 -56.7326 -23.6819 6.18804 -13.0685 -0.678958 7.6944 -103.76 -2.96037 -24.1469 83.0917 10.1193 3.86004 51.9849 -2.26685 -5.16256 -130.015 3.12946 1.31031 82.0925 -8.03948 -6.17458 36.7171 0.259499 -0.948889 -74.5418 7.49667 43.7731 57.599 -78.4805 68.0691 
8.42826 45.0466 129.333 -6.22102 -0.743294 56.2447 -162.457 3.16495 -1.95648 -24.581 3.84952 -0.0334376 -24.7825 -14.8668 0.713156 -114.975 79.8995 97.4415 -109.639 -34.7577 -139.748 116.765 -48.6 -137.678 -68.1887 -46.2884 7.91267 39.56 0.0919087 -21.4169 76.0026 -27.9079 41.9256 38.7514 -46.9611 -53.6476 -56.6902 -24.0042 6.44911 -12.8448 -0.56431 7.22853 -105.882 -2.44448 -24.8489 86.2761 11.2849 3.26519 48.611 -2.23818 -5.06447 -129.697 3.04006 0.835776 81.4198 -9.74705 -6.22013 37.8944 0.603653 -0.603172 -78.5433 8.92376 40.6685 93.7747 -80.3887 106.199 
8.29029 45.1209 129.912 -6.72604 -0.0150939 55.2171 -162.523 2.92471 -3.38079 -24.8933 3.55591 0.969132 -24.5263 -14.5267 0.813463 -117.256 80.3842 98.8361 -110.298 -35.9557 -139.11 115.945 -46.4826 -138.277 -69.5671 -53.395 11.524 38.6283 -1.21319 -29.1814 76.233 -27.2624 41.0599 38.8269 -47.3186 -53.1882 -56.8794 -24.283 6.41783 -12.6816 -0.526338 7.09485 -108.913 -2.01629 -25.6325 90.6496 11.9365 2.69743 44.7798 -2.16501 -4.89659 -129.211 2.8472 0.693072 80.9306 -11.2922 -6.27486 38.6616 0.925092 -0.267124 -80.2783 10.4609 37.5115 116.317 -79.6924 129.676 
8.14473 45.1634 130.418 -7.08136 0.355398 54.1582 -162.354 2.48728 -4.93927 -25.2869 3.08729 1.98542 -23.9423 -13.9356 1.06911 -117.426 80.7478 99.4021 -110.818 -36.9809 -138.482 115.278 -43.6561 -138.406 -69.8274 -56.9205 15.517 35.823 -1.42056 -33.4152 76.4572 -26.7184 40.4139 38.7584 -47.9693 -52.5612 -57.271 -24.2324 6.10799 -12.2271 -0.403089 6.65562 -112.548 -1.67162 -26.3046 95.5004 12.339 2.21339 40.723 -2.08858 -4.71746 -128.867 2.38929 0.811781 80.8695 -13.0214 -6.30247 39.4354 1.30357 0.119757 -80.0935 11.7239 34.5405 122.211 -79.7933 135.341 
8.01173 45.1832 130.889 -7.42459 0.477541 53.0748 -162.008 1.90244 -6.57106 -25.6219 2.5005 2.98776 -23.3025 -13.0718 1.35208 -117.897 80.8671 100.417 -111.325 -37.9086 -138.028 114.87 -40.4123 -138.089 -70.7503 -57.1282 17.8946 32.8915 -1.00393 -34.2613 76.5392 -26.4139 39.8667 38.6736 -48.6362 -52.2325 -57.6071 -23.9281 5.87133 -11.6118 -0.278228 6.13769 -116.479 -1.2038 -26.5737 99.6895 11.6711 1.79691 36.8726 -1.90157 -4.35878 -128.535 1.69278 0.998161 81.104 -14.9364 -6.26431 40.1724 1.70236 0.524285 -78.2503 12.4931 31.732 111.268 -81.6416 123.14 
7.91129 45.2379 131.353 -7.92683 0.390763 51.8509 -161.24 1.27461 -8.34909 -26.148 1.95483 3.95807 -22.7508 -11.8606 1.29129 -118.375 80.58 101.653 -111.801 -38.5328 -138.067 114.788 -36.9445 -137.64 -73.9045 -52.7117 16.7552 30.773 -0.231908 -30.0304 76.6609 -26.0807 39.381 38.8313 -49.1757 -51.8631 -57.8734 -23.8331 5.76625 -11.5545 -0.353083 6.2782 -120.433 -0.65048 -26.6438 102.423 9.41462 1.54494 34.3047 -1.56088 -3.75316 -127.881 0.964746 0.894361 81.3675 -16.2646 -6.01976 40.7945 2.02821 0.835767 -74.7752 12.5164 29.0596 68.0742 -82.7195 78.0142 
7.84817 45.3403 131.833 -8.58276 0.150072 50.4173 -160.05 0.642801 -10.2726 -26.9409 1.50971 4.89111 -22.2658 -10.7545 0.927098 -118.107 79.8212 102.398 -112.107 -38.7591 -138.407 115.356 -33.5595 -136.887 -77.2548 -43.5654 13.2701 27.9999 0.732209 -21.7704 76.901 -25.6299 39.0114 39.4815 -49.6768 -51.2256 -58.2892 -24.0233 5.7348 -11.4789 -0.314806 5.99085 -123.904 -0.0937843 -26.7407 103.38 7.07576 1.57798 32.8043 -1.26547 -3.20862 -126.781 0.339018 0.767322 81.4011 -17.3255 -5.75275 41.1863 2.3259 1.1339 -70.1554 11.7424 26.7034 27.4582 -77.5927 35.2596 
7.80724 45.4157 132.37 -9.21919 0.0466117 48.9335 -159.08 0.0145811 -11.883 -27.5273 1.16883 5.42563 -21.8888 -9.75304 0.513461 -117.469 78.8793 103.183 -112.243 -38.8752 -138.528 116.556 -30.9079 -135.936 -78.589 -30.3971 9.80035 21.8675 1.37793 -11.9324 77.0274 -25.3106 38.5587 40.1393 -50.0293 -50.9276 -58.4375 -24.4256 5.82243 -11.4525 -0.142586 5.28312 -126.796 0.72216 -26.9253 102.737 5.94965 1.89237 31.3344 -1.12345 -2.90264 -125.698 -0.358075 0.416581 81.497 -18.1245 -5.37076 41.3031 2.54669 1.36156 -65.1779 10.5836 24.5011 13.8549 -69.1654 19.5193 
7.76911 45.4362 132.978 -9.78033 0.182671 47.5592 -158.663 -0.529662 -13.1019 -27.6237 0.928201 5.63076 -21.5852 -8.78022 0.191183 -116.633 78.1579 104.016 -112.16 -38.8062 -138.453 119.336 -29.1894 -134.745 -76.5392 -14.8024 6.61741 11.5272 0.847094 -4.88556 77.0166 -25.135 37.9698 40.496 -50.3123 -50.8874 -58.3483 -24.8541 5.91048 -11.771 -0.102527 5.17991 -128.964 2.0778 -27.2957 100.607 6.29415 2.47945 29.9578 -1.12368 -2.85009 -124.857 -1.1855 -0.390385 81.7943 -18.2834 -4.74689 41.2511 2.59839 1.39424 -60.032 9.30599 22.2632 8.76984 -59.7452 12.3333 
7.74301 45.4422 133.635 -10.2676 0.361494 46.384 -158.46 -0.949575 -14.3647 -27.5512 0.656657 6.19504 -21.3764 -7.87652 -0.24257 -115.998 77.698 104.921 -111.725 -38.2457 -138.407 124.924 -28.2378 -132.339 -71.3895 -3.79002 2.86812 2.43431 0.439232 -5.48796 77.0027 -25.0357 37.6016 40.7532 -50.9207 -50.6548 -58.4081 -24.7719 5.80692 -11.7781 -0.139367 5.37645 -130.457 3.70075 -27.8644 97.1092 6.86707 3.3679 30.122 -1.14882 -2.93135 -124.065 -1.94863 -1.16721 82.159 -17.8944 -4.12935 41.0373 2.51017 1.27564 -54.814 8.07708 20.0625 6.5711 -50.7649 8.36636 
7.73896 45.4565 134.315 -10.619 0.475338 45.5762 -158.277 -1.36038 -15.5595 -27.5268 0.164473 7.21373 -21.2997 -6.32318 -1.12622 -115.757 77.1304 106.181 -111.038 -37.3896 -138.271 130.843 -27.0757 -128.794 -64.6747 3.61294 -1.97709 -1.43594 0.374215 -6.32051 77.1152 -24.8092 37.3555 41.0362 -51.7012 -50.1212 -58.7018 -24.5635 5.52467 -11.7841 -0.136254 5.39968 -131.404 5.16914 -28.4626 92.1342 6.71581 4.56876 33.3037 -1.15459 -3.10185 -123.188 -2.4394 -1.42456 82.3723 -17.3379 -3.78675 40.6562 2.3614 1.1118 -49.7991 7.23544 17.7474 5.64868 -42.6796 5.87971 
7.75089 45.4676 135.013 -10.8607 0.618484 45.1385 -158.301 -1.85575 -16.3431 -27.2617 -0.531427 8.18119 -21.3862 -4.32445 -1.96953 -116.485 76.308 108.322 -110.52 -36.9113 -137.839 134.468 -26.3023 -125.847 -57.714 9.29822 -7.0447 -4.25655 0.318412 -5.60468 77.2162 -24.555 36.9661 40.6468 -52.2341 -50.0952 -58.6546 -24.4642 5.19048 -12.2001 -0.185227 5.62906 -131.322 6.07884 -29.1184 85.6588 6.52074 6.07082 38.069 -1.27257 -3.43969 -122.347 -2.71534 -1.32388 82.451 -16.9707 -3.66764 40.611 2.27669 0.990835 -45.0393 6.66706 15.219 5.35173 -35.7211 4.11488 
7.83128 45.46 135.666 -11.0206 0.687636 44.9348 -158.602 -2.38185 -16.5007 -26.5139 -1.16952 8.5122 -21.5877 -2.63507 -2.35839 -117.525 75.3443 110.305 -110.404 -36.9383 -137.482 134.102 -27.6439 -125.633 -56.9497 11.5727 -7.75813 -7.1666 0.727132 -8.03201 77.2564 -24.4198 36.6985 38.9468 -52.5254 -51.0571 -58.0538 -24.1243 4.74728 -12.5789 -0.229797 5.90825 -130.816 6.13559 -30.0372 81.8243 6.70916 7.37032 39.737 -1.45769 -3.7508 -121.707 -2.81381 -1.20053 82.6294 -16.139 -3.55839 40.5574 2.13325 0.806071 -40.5036 6.26077 12.5804 5.37198 -29.9171 2.90257 
8.00703 45.415 136.244 -11.3271 0.626301 44.7231 -158.882 -2.80848 -16.2574 -25.5824 -1.51244 8.17377 -21.7605 -1.65983 -2.26906 -118.752 74.9841 111.243 -110.604 -37.2268 -137.457 130.272 -28.7643 -126.5 -60.1521 12.9577 -6.84523 -8.40493 0.663301 -8.21069 77.2865 -24.3766 36.686 36.6724 -52.8398 -52.3755 -57.4287 -23.7016 4.19344 -12.7657 -0.243687 6.13047 -130.352 5.77378 -30.7619 82.7705 6.90774 7.67582 38.8851 -1.51017 -3.82339 -121.215 -2.89102 -1.43408 83.1285 -14.7304 -3.28347 40.3859 1.89541 0.524379 -36.1913 5.80196 9.98827 5.70157 -25.2265 2.09242 
8.21128 45.3459 136.799 -11.628 0.500848 44.275 -159.018 -3.18439 -16.1064 -24.9063 -1.71067 7.68455 -21.7431 -1.74532 -2.06947 -118.798 75.1268 111.101 -110.938 -37.5727 -137.67 127.953 -28.8022 -126.324 -61.3026 12.7256 -7.8031 -7.05744 0.819361 -8.79338 77.2753 -24.447 36.8676 35.0768 -53.1719 -53.463 -57.0365 -23.3758 3.77594 -12.7382 -0.203719 6.06582 -129.497 5.36392 -30.7384 84.8233 7.06233 7.51823 37.4787 -1.47834 -3.80767 -121.008 -3.41562 -2.12909 84.0588 -12.9757 -2.68074 40.2036 1.60223 0.153627 -32.4593 5.33198 7.60572 6.33613 -21.5474 1.61667 
8.34718 45.269 137.38 -11.519 0.550351 43.7238 -159.408 -3.55806 -16.1092 -24.5649 -1.99688 7.35256 -21.5094 -2.20948 -2.26898 -117.807 75.1315 110.439 -111.13 -37.8115 -137.714 128.766 -29.8466 -126.538 -60.808 13.0387 -8.39571 -6.15955 1.01556 -9.87882 77.2431 -24.5192 36.9648 34.3958 -53.5088 -54.0524 -56.7407 -23.1137 3.51361 -12.4506 -0.0192326 5.42072 -128.676 4.53381 -30.7042 84.8457 7.1387 8.11479 36.3913 -1.51412 -3.85736 -121.214 -4.38877 -2.94473 84.9639 -11.5039 -1.95193 39.8304 1.33902 -0.166834 -29.8262 5.19453 5.15218 7.24203 -18.7407 1.5649 
8.42743 45.2538 137.971 -11.0841 0.96413 43.4099 -160.124 -3.80341 -15.7565 -24.4699 -2.22134 6.78281 -21.2189 -2.42598 -2.73357 -116.563 74.9852 109.968 -111.128 -38.0691 -137.233 129.952 -31.0266 -126.607 -59.5792 14.3217 -8.33409 -6.64153 0.908584 -9.59525 77.316 -24.4028 36.8979 33.4277 -53.9034 -54.423 -56.4152 -22.7447 3.05036 -11.9668 0.174558 4.89571 -128.626 3.48639 -31.2878 84.1514 7.63016 9.31216 36.3704 -1.67591 -4.09758 -121.868 -5.5134 -3.7217 85.3416 -10.9405 -1.26429 40.6014 1.29524 -0.299614 -28.3011 5.41718 2.16412 8.30312 -16.5721 1.82253 
8.51585 45.3454 138.572 -10.5944 1.47986 43.3478 -160.637 -3.83062 -15.0568 -24.7751 -2.22237 6.01131 -20.8219 -2.56977 -3.47944 -115.315 74.6336 109.29 -110.983 -38.0325 -136.933 129.814 -31.4474 -125.879 -58.5511 15.284 -8.87897 -7.44404 0.972533 -9.59832 77.372 -24.3918 37.1019 32.3703 -54.5206 -54.717 -56.124 -22.3275 2.46018 -11.5332 0.342653 4.48634 -129.009 2.59281 -31.6938 83.9529 8.03668 10.2228 36.6239 -1.81765 -4.33162 -122.578 -6.49809 -4.15272 85.2325 -10.6959 -0.717814 42.1899 1.33061 -0.389209 -27.3104 5.9023 -1.2992 9.32107 -14.8046 2.25136 
